<svg xmlns="http://www.w3.org/2000/svg" viewBox="0 0 30.51 37.63"><defs><style>.cls-1{fill:#493df3;}</style></defs><g id="Layer_2" data-name="Layer 2"><g id="Layer_1-2" data-name="Layer 1"><path class="cls-1" d="M7.63,37.63s1.78-3.37-.84-7.87S-1.17,19.18.23,12,5.85.92,7.72.45a2.14,2.14,0,0,1,2.74,1.33c.17.49.13,1.51-.77,4S8,12,7.62,13.18s-.5,4,1.91,4.11h4.52s1.46.05.9,1.91-2.18,8.33-2.18,8.33-.33.9.2,1.21,1.73-1.56,1.73-1.56l9.16-10.85a5.16,5.16,0,0,0,.43-.61,2.7,2.7,0,0,0-.66-3.47,2.14,2.14,0,0,0-1.33-.47H15.55s-.55-.12-.22-1.2,1.8-7.45,2.54-8.64A4,4,0,0,1,24,1.05c3,2.3,7,6.89,6.45,12.6-.85,9.37-8,15.23-15.36,20-1.39.89-2.8,1.76-4.25,2.53C10.32,36.44,7.63,37.63,7.63,37.63Z"/></g></g></svg>